# File created by Blade
# Date/Time:  Wed Apr 08 14:10:35 2015
# Frame Rate: 120.000 fps
#------------------------------------------------------
:FULLY-SPECIFIED
:DEGREES
423
root 1.268362 46.779934 7.877796 10.373508 5.953717 -1.082539
Spine -4.122242 -5.324251 5.743664
Head 32.572067 -4.578412 -8.416299
LeftShoulder 0.747833 25.525171 45.171126
LeftArm 72.532310 -39.336086 -41.176482
LeftForeArm 9.843603 -0.000000 12.394283
LeftHand 18.732419 0.000000 17.347049
LeftHandThumb1 -26.253704 0.000000 33.147579
RightShoulder 6.137159 19.189911 -41.434402
RightArm 30.728822 15.522509 41.704250
RightForeArm -4.423708 -0.000000 28.827661
RightHand 19.577469 -0.000000 -14.323460
RightHandThumb1 -24.326973 -0.000000 -32.862282
LeftUpLeg -19.491842 0.552245 13.586668
LeftLeg 29.543283 -0.000000 -0.000000
LeftFoot 31.372437 23.111169 -21.540668
LeftToeBase 13.414025 -0.000000 -0.000000
RightUpLeg -17.792067 -6.075062 -18.904752
RightLeg 13.364770 -0.000000 -0.000000
RightFoot 47.047544 -13.151785 -0.680279
RightToeBase 7.532909 -0.000000 -0.000000
424
root 1.296375 47.340581 7.767895 9.153689 5.746227 -0.760236
Spine -1.072761 -5.465995 5.268978
Head 30.696602 -4.423206 -8.511810
LeftShoulder 0.302494 25.033417 44.867284
LeftArm 72.122033 -37.892665 -40.752855
LeftForeArm 9.507862 -0.000000 11.907664
LeftHand 18.943587 -0.000000 17.145121
LeftHandThumb1 -26.253704 0.000000 33.147579
RightShoulder 5.985672 19.331478 -41.317184
RightArm 30.276379 14.991922 42.234475
RightForeArm -4.247641 -0.000000 28.916476
RightHand 19.235360 -0.000000 -14.710832
RightHandThumb1 -24.326973 -0.000000 -32.862282
LeftUpLeg -19.765348 2.008999 14.784908
LeftLeg 29.732674 -0.000000 -0.000000
LeftFoot 29.142380 24.247101 -21.289115
LeftToeBase 13.366424 -0.000000 -0.000000
RightUpLeg -17.876251 -8.277844 -21.018493
RightLeg 12.247983 -0.000000 -0.000000
RightFoot 46.626088 -13.199021 -1.655348
RightToeBase 6.310361 -0.000000 -0.000000
425
root 1.312487 47.867025 7.650934 8.108191 5.579850 -0.476238
Spine 1.909965 -5.662363 4.791873
Head 28.326198 -4.335802 -8.663742
LeftShoulder -0.403049 24.654386 44.489520
LeftArm 71.996246 -36.644073 -40.321788
LeftForeArm 9.562128 0.000000 11.130138
LeftHand 20.334839 -0.000000 18.248026
LeftHandThumb1 -26.253704 0.000000 33.147579
RightShoulder 5.854692 19.592824 -41.141389
RightArm 29.698744 14.548630 42.416770
RightForeArm -4.701648 -0.000000 29.270040
RightHand 18.995669 -0.000000 -13.959683
RightHandThumb1 -24.326973 -0.000000 -32.862282
LeftUpLeg -20.205215 3.865013 16.052882
LeftLeg 29.249296 -0.000000 -0.000000
LeftFoot 27.128572 25.345787 -20.414798
LeftToeBase 13.113910 -0.000000 -0.000000
RightUpLeg -18.213892 -11.234934 -22.869340
RightLeg 10.746281 -0.000000 -0.000000
RightFoot 46.133359 -12.995009 -2.959441
RightToeBase 5.565975 -0.000000 -0.000000
426
root 1.312642 48.356874 7.519417 7.336722 5.367690 -0.252610
Spine 4.709140 -5.712643 4.313506
Head 25.653834 -4.336758 -8.656149
LeftShoulder -1.287699 24.376935 44.081399
LeftArm 72.539016 -35.950365 -40.693336
LeftForeArm 8.553550 -0.000000 11.112939
LeftHand 20.142422 -0.000000 17.977726
LeftHandThumb1 -26.253704 0.000000 33.147579
RightShoulder 5.480562 19.792831 -41.091665
RightArm 29.282554 14.217780 42.695650
RightForeArm -4.159936 -0.000000 29.411883
RightHand 18.588203 -0.000000 -16.864738
RightHandThumb1 -24.326973 -0.000000 -32.862282
LeftUpLeg -20.888267 5.878815 17.450706
LeftLeg 28.224094 -0.000000 -0.000000
LeftFoot 24.896754 26.445055 -19.799076
LeftToeBase 13.182011 -0.000000 -0.000000
RightUpLeg -19.017751 -14.377878 -24.459654
RightLeg 9.117264 -0.000000 -0.000000
RightFoot 45.598009 -12.848404 -4.354442
RightToeBase 5.523400 -0.000000 -0.000000
427
root 1.295435 48.816625 7.370038 6.908118 5.120619 -0.119376
Spine 7.220195 -5.657310 3.903995
Head 22.833015 -4.518387 -8.580504
LeftShoulder -2.191890 23.930611 43.640258
LeftArm 73.309368 -35.661474 -41.776338
LeftForeArm 7.791729 0.000000 11.511386
LeftHand 19.829475 -0.000000 18.265284
LeftHandThumb1 -26.253704 0.000000 33.147579
RightShoulder 5.080026 20.066238 -40.964289
RightArm 28.952122 14.129760 42.768258
RightForeArm -4.676105 -0.000000 29.640719
RightHand 19.613207 0.000000 -15.722547
RightHandThumb1 -24.326973 -0.000000 -32.862282
LeftUpLeg -21.913611 8.045761 18.929541
LeftLeg 26.762839 -0.000000 -0.000000
LeftFoot 23.017981 27.055212 -18.651083
LeftToeBase 14.013790 -0.000000 -0.000000
RightUpLeg -20.401120 -17.503197 -25.725044
RightLeg 7.543194 -0.000000 -0.000000
RightFoot 45.138553 -12.723701 -5.795488
RightToeBase 6.495146 -0.000000 -0.000000
